<svg width="16" height="16" viewBox="0 0 16 16" fill="none" xmlns="http://www.w3.org/2000/svg">
<path d="M15.6933 13.8488C15.8344 13.9899 15.905 14.1613 15.905 14.3629C15.905 14.5645 15.8344 14.7359 15.6933 14.877L14.8465 15.7238C14.7054 15.8649 14.534 15.9355 14.3324 15.9355C14.1308 15.9355 13.9594 15.8649 13.8183 15.7238L10.7941 12.6996C10.653 12.5585 10.5824 12.3871 10.5824 12.1855V11.7016C9.45339 12.5887 8.16307 13.0323 6.71146 13.0323C4.97758 13.0323 3.49573 12.4173 2.26589 11.1875C1.03605 9.95766 0.421133 8.47581 0.421133 6.74194C0.421133 5.00806 1.03605 3.52621 2.26589 2.29637C3.49573 1.06653 4.97758 0.451613 6.71146 0.451613C8.44533 0.451613 9.92718 1.06653 11.157 2.29637C12.3869 3.52621 13.0018 5.00806 13.0018 6.74194C13.0018 8.19355 12.5582 9.48387 11.6711 10.6129H12.155C12.3566 10.6129 12.528 10.6835 12.6691 10.8246L15.6933 13.8488ZM3.95944 9.49395C4.72557 10.2399 5.64291 10.6129 6.71146 10.6129C7.78 10.6129 8.68726 10.2399 9.43323 9.49395C10.1994 8.72782 10.5824 7.81048 10.5824 6.74194C10.5824 5.67339 10.1994 4.76613 9.43323 4.02016C8.68726 3.25403 7.78 2.87097 6.71146 2.87097C5.64291 2.87097 4.72557 3.25403 3.95944 4.02016C3.21347 4.76613 2.84049 5.67339 2.84049 6.74194C2.84049 7.81048 3.21347 8.72782 3.95944 9.49395Z" fill="black"/>
</svg>
