<svg width="52" height="52" viewBox="0 0 52 52" fill="none" xmlns="http://www.w3.org/2000/svg">
<path d="M7.72154 13.4631C7.3007 13.4631 6.88932 13.5879 6.5394 13.8217C6.18949 14.0555 5.91677 14.3879 5.75572 14.7767C5.59467 15.1655 5.55253 15.5933 5.63464 16.006C5.71674 16.4188 5.91939 16.7979 6.21697 17.0955C6.51454 17.3931 6.89368 17.5957 7.30643 17.6778C7.71918 17.7599 8.14701 17.7178 8.53581 17.5567C8.92461 17.3957 9.25693 17.123 9.49073 16.7731C9.72454 16.4231 9.84933 16.0118 9.84933 15.5909C9.84933 15.0266 9.62515 14.4854 9.22612 14.0864C8.82708 13.6873 8.28587 13.4631 7.72154 13.4631ZM16.2327 17.7187H46.0218C46.5861 17.7187 47.1273 17.4945 47.5263 17.0955C47.9254 16.6965 48.1495 16.1552 48.1495 15.5909C48.1495 15.0266 47.9254 14.4854 47.5263 14.0864C47.1273 13.6873 46.5861 13.4631 46.0218 13.4631H16.2327C15.6684 13.4631 15.1272 13.6873 14.7281 14.0864C14.3291 14.4854 14.1049 15.0266 14.1049 15.5909C14.1049 16.1552 14.3291 16.6965 14.7281 17.0955C15.1272 17.4945 15.6684 17.7187 16.2327 17.7187ZM16.2327 24.1021C15.8119 24.1021 15.4005 24.2269 15.0506 24.4607C14.7007 24.6945 14.4279 25.0268 14.2669 25.4156C14.1058 25.8044 14.0637 26.2322 14.1458 26.645C14.2279 27.0577 14.4305 27.4369 14.7281 27.7344C15.0257 28.032 15.4048 28.2347 15.8176 28.3168C16.2303 28.3989 16.6582 28.3567 17.047 28.1957C17.4358 28.0346 17.7681 27.7619 18.0019 27.412C18.2357 27.0621 18.3605 26.6507 18.3605 26.2299C18.3605 25.6655 18.1363 25.1243 17.7373 24.7253C17.3382 24.3263 16.797 24.1021 16.2327 24.1021ZM24.7439 34.741C24.323 34.741 23.9116 34.8658 23.5617 35.0996C23.2118 35.3334 22.9391 35.6658 22.778 36.0546C22.617 36.4434 22.5749 36.8712 22.657 37.2839C22.7391 37.6967 22.9417 38.0758 23.2393 38.3734C23.5369 38.671 23.916 38.8736 24.3288 38.9557C24.7415 39.0378 25.1693 38.9957 25.5581 38.8346C25.9469 38.6736 26.2792 38.4009 26.5131 38.051C26.7469 37.701 26.8717 37.2897 26.8717 36.8688C26.8717 36.3045 26.6475 35.7633 26.2484 35.3642C25.8494 34.9652 25.3082 34.741 24.7439 34.741ZM46.0218 24.1021H24.7439C24.1795 24.1021 23.6383 24.3263 23.2393 24.7253C22.8402 25.1243 22.6161 25.6655 22.6161 26.2299C22.6161 26.7942 22.8402 27.3354 23.2393 27.7344C23.6383 28.1335 24.1795 28.3577 24.7439 28.3577H46.0218C46.5861 28.3577 47.1273 28.1335 47.5263 27.7344C47.9254 27.3354 48.1495 26.7942 48.1495 26.2299C48.1495 25.6655 47.9254 25.1243 47.5263 24.7253C47.1273 24.3263 46.5861 24.1021 46.0218 24.1021ZM46.0218 34.741H33.255C32.6907 34.741 32.1495 34.9652 31.7504 35.3642C31.3514 35.7633 31.1272 36.3045 31.1272 36.8688C31.1272 37.4331 31.3514 37.9744 31.7504 38.3734C32.1495 38.7724 32.6907 38.9966 33.255 38.9966H46.0218C46.5861 38.9966 47.1273 38.7724 47.5263 38.3734C47.9254 37.9744 48.1495 37.4331 48.1495 36.8688C48.1495 36.3045 47.9254 35.7633 47.5263 35.3642C47.1273 34.9652 46.5861 34.741 46.0218 34.741Z" fill="#9333EA"/>
</svg>
