<svg width="52" height="52" viewBox="0 0 52 52" fill="none" xmlns="http://www.w3.org/2000/svg">
<path d="M26.6573 26.698C27.7927 25.7153 28.7033 24.4998 29.3274 23.134C29.9516 21.7683 30.2746 20.2842 30.2746 18.7826C30.2746 15.961 29.1537 13.2549 27.1585 11.2598C25.1633 9.26456 22.4572 8.14368 19.6356 8.14368C16.814 8.14368 14.1079 9.26456 12.1127 11.2598C10.1175 13.2549 8.99665 15.961 8.99665 18.7826C8.99664 20.2842 9.31965 21.7683 9.94379 23.134C10.5679 24.4998 11.4786 25.7153 12.6139 26.698C9.63529 28.0468 7.10816 30.2249 5.33468 32.9719C3.5612 35.7189 2.61641 38.9186 2.61328 42.1883C2.61328 42.7526 2.83746 43.2939 3.2365 43.6929C3.63553 44.0919 4.17675 44.3161 4.74107 44.3161C5.3054 44.3161 5.84661 44.0919 6.24565 43.6929C6.64468 43.2939 6.86886 42.7526 6.86886 42.1883C6.86886 38.8024 8.21393 35.5551 10.6082 33.1609C13.0024 30.7666 16.2497 29.4216 19.6356 29.4216C23.0216 29.4216 26.2688 30.7666 28.6631 33.1609C31.0573 35.5551 32.4023 38.8024 32.4023 42.1883C32.4023 42.7526 32.6265 43.2939 33.0256 43.6929C33.4246 44.0919 33.9658 44.3161 34.5301 44.3161C35.0945 44.3161 35.6357 44.0919 36.0347 43.6929C36.4337 43.2939 36.6579 42.7526 36.6579 42.1883C36.6548 38.9186 35.71 35.7189 33.9365 32.9719C32.163 30.2249 29.6359 28.0468 26.6573 26.698V26.698ZM19.6356 25.166C18.3731 25.166 17.1389 24.7916 16.0892 24.0902C15.0395 23.3888 14.2213 22.3918 13.7381 21.2254C13.255 20.059 13.1286 18.7755 13.3749 17.5373C13.6212 16.299 14.2291 15.1616 15.1219 14.2689C16.0146 13.3762 17.152 12.7682 18.3903 12.5219C19.6285 12.2756 20.912 12.402 22.0784 12.8852C23.2448 13.3683 24.2418 14.1865 24.9432 15.2362C25.6446 16.286 26.019 17.5201 26.019 18.7826C26.019 20.4756 25.3464 22.0992 24.1493 23.2964C22.9522 24.4935 21.3286 25.166 19.6356 25.166ZM40.3603 25.8469C41.722 24.3135 42.6115 22.4191 42.9217 20.392C43.2319 18.3648 42.9496 16.2911 42.1088 14.4207C41.268 12.5502 39.9045 10.9626 38.1824 9.84894C36.4604 8.73531 34.4531 8.14313 32.4023 8.14368C31.838 8.14368 31.2968 8.36785 30.8978 8.76689C30.4987 9.16593 30.2746 9.70714 30.2746 10.2715C30.2746 10.8358 30.4987 11.377 30.8978 11.776C31.2968 12.1751 31.838 12.3993 32.4023 12.3993C34.0953 12.3993 35.719 13.0718 36.9161 14.2689C38.1132 15.466 38.7857 17.0897 38.7857 18.7826C38.7827 19.9002 38.4863 20.9975 37.9262 21.9646C37.3661 22.9317 36.5619 23.7348 35.594 24.2936C35.2786 24.4756 35.0151 24.7355 34.8288 25.0484C34.6425 25.3614 34.5397 25.7169 34.5301 26.0809C34.5212 26.4422 34.6045 26.7997 34.772 27.1199C34.9395 27.44 35.1858 27.7122 35.4876 27.9108L36.3175 28.4641L36.5941 28.613C39.1589 29.8295 41.3227 31.7536 42.8306 34.1587C44.3385 36.5638 45.1277 39.3497 45.1053 42.1883C45.1053 42.7526 45.3294 43.2939 45.7285 43.6929C46.1275 44.0919 46.6687 44.3161 47.233 44.3161C47.7974 44.3161 48.3386 44.0919 48.7376 43.6929C49.1367 43.2939 49.3608 42.7526 49.3608 42.1883C49.3782 38.9231 48.5604 35.7076 46.9851 32.8475C45.4098 29.9873 43.1293 27.5774 40.3603 25.8469V25.8469Z" fill="#059669"/>
</svg>
