<svg width="52" height="52" viewBox="0 0 52 52" fill="none" xmlns="http://www.w3.org/2000/svg">
<path d="M47.5078 11.3354H4.95201C4.38768 11.3354 3.84647 11.5596 3.44743 11.9586C3.0484 12.3576 2.82422 12.8988 2.82422 13.4632V21.9743C2.82792 23.2913 3.23888 24.5749 4.00076 25.6492C4.76263 26.7234 5.83813 27.5357 7.0798 27.9747V47.5078C7.0798 48.0721 7.30398 48.6134 7.70301 49.0124C8.10205 49.4114 8.64326 49.6356 9.20759 49.6356H43.2522C43.8166 49.6356 44.3578 49.4114 44.7568 49.0124C45.1558 48.6134 45.38 48.0721 45.38 47.5078V27.9747C46.6217 27.5357 47.6972 26.7234 48.4591 25.6492C49.2209 24.5749 49.6319 23.2913 49.6356 21.9743V13.4632C49.6356 12.8988 49.4114 12.3576 49.0124 11.9586C48.6134 11.5596 48.0721 11.3354 47.5078 11.3354ZM32.6133 15.591H36.8689V21.9743C36.8689 22.5387 36.6447 23.0799 36.2456 23.4789C35.8466 23.8779 35.3054 24.1021 34.7411 24.1021C34.1767 24.1021 33.6355 23.8779 33.2365 23.4789C32.8375 23.0799 32.6133 22.5387 32.6133 21.9743V15.591ZM24.1021 15.591H28.3577V21.9743C28.3577 22.5387 28.1335 23.0799 27.7345 23.4789C27.3354 23.8779 26.7942 24.1021 26.2299 24.1021C25.6656 24.1021 25.1244 23.8779 24.7253 23.4789C24.3263 23.0799 24.1021 22.5387 24.1021 21.9743V15.591ZM15.591 15.591H19.8465V21.9743C19.8465 22.5387 19.6224 23.0799 19.2233 23.4789C18.8243 23.8779 18.2831 24.1021 17.7188 24.1021C17.1544 24.1021 16.6132 23.8779 16.2142 23.4789C15.8151 23.0799 15.591 22.5387 15.591 21.9743V15.591ZM9.20759 24.1021C8.64326 24.1021 8.10205 23.8779 7.70301 23.4789C7.30398 23.0799 7.0798 22.5387 7.0798 21.9743V15.591H11.3354V21.9743C11.3354 22.5387 11.1112 23.0799 10.7122 23.4789C10.3131 23.8779 9.77191 24.1021 9.20759 24.1021ZM30.4855 45.38H21.9743V41.1244C21.9743 39.9958 22.4227 38.9134 23.2208 38.1153C24.0188 37.3172 25.1013 36.8689 26.2299 36.8689C27.3586 36.8689 28.441 37.3172 29.2391 38.1153C30.0371 38.9134 30.4855 39.9958 30.4855 41.1244V45.38ZM41.1244 45.38H34.7411V41.1244C34.7411 38.8671 33.8444 36.7023 32.2482 35.1061C30.6521 33.51 28.4872 32.6133 26.2299 32.6133C23.9726 32.6133 21.8078 33.51 20.2116 35.1061C18.6155 36.7023 17.7188 38.8671 17.7188 41.1244V45.38H11.3354V27.9747C12.1175 27.6844 12.839 27.2515 13.4632 26.698C14.6335 27.7448 16.1486 28.3235 17.7188 28.3235C19.2889 28.3235 20.804 27.7448 21.9743 26.698C23.1447 27.7448 24.6597 28.3235 26.2299 28.3235C27.8001 28.3235 29.3152 27.7448 30.4855 26.698C31.6558 27.7448 33.1709 28.3235 34.7411 28.3235C36.3112 28.3235 37.8263 27.7448 38.9967 26.698C39.6209 27.2515 40.3423 27.6844 41.1244 27.9747V45.38ZM45.38 21.9743C45.38 22.5387 45.1558 23.0799 44.7568 23.4789C44.3578 23.8779 43.8166 24.1021 43.2522 24.1021C42.6879 24.1021 42.1467 23.8779 41.7477 23.4789C41.3486 23.0799 41.1244 22.5387 41.1244 21.9743V15.591H45.38V21.9743ZM9.84593 7.0798H43.2522C43.8166 7.0798 44.3578 6.85562 44.7568 6.45658C45.1558 6.05755 45.38 5.51633 45.38 4.95201C45.38 4.38768 45.1558 3.84647 44.7568 3.44743C44.3578 3.0484 43.8166 2.82422 43.2522 2.82422H9.84593C9.2816 2.82422 8.74039 3.0484 8.34135 3.44743C7.94231 3.84647 7.71814 4.38768 7.71814 4.95201C7.71814 5.51633 7.94231 6.05755 8.34135 6.45658C8.74039 6.85562 9.2816 7.0798 9.84593 7.0798V7.0798Z" fill="#7C3AED"/>
</svg>
