<svg width="15" height="15" viewBox="0 0 15 15" fill="none" xmlns="http://www.w3.org/2000/svg">
<path d="M7.28238 3.73044C9.18762 3.73044 10.7602 5.30302 10.7602 7.20826C10.7602 9.14374 9.18762 10.6861 7.28238 10.6861C5.3469 10.6861 3.80456 9.14374 3.80456 7.20826C3.80456 5.30302 5.3469 3.73044 7.28238 3.73044ZM7.28238 9.4764C8.5223 9.4764 9.52028 8.47842 9.52028 7.20826C9.52028 5.96834 8.5223 4.97035 7.28238 4.97035C6.01222 4.97035 5.01424 5.96834 5.01424 7.20826C5.01424 8.47842 6.04246 9.4764 7.28238 9.4764ZM11.6977 3.60947C11.6977 4.0631 11.3348 4.426 10.8812 4.426C10.4275 4.426 10.0646 4.0631 10.0646 3.60947C10.0646 3.15584 10.4275 2.79294 10.8812 2.79294C11.3348 2.79294 11.6977 3.15584 11.6977 3.60947ZM13.9961 4.426C14.0566 5.54495 14.0566 8.90181 13.9961 10.0208C13.9356 11.1095 13.6937 12.047 12.9074 12.8635C12.1211 13.6498 11.1533 13.8917 10.0646 13.9522C8.94569 14.0127 5.58883 14.0127 4.46988 13.9522C3.38117 13.8917 2.44367 13.6498 1.62714 12.8635C0.84085 12.047 0.598914 11.1095 0.53843 10.0208C0.477946 8.90181 0.477946 5.54495 0.53843 4.426C0.598914 3.33729 0.84085 2.36955 1.62714 1.58326C2.44367 0.796968 3.38117 0.555032 4.46988 0.494549C5.58883 0.434065 8.94569 0.434065 10.0646 0.494549C11.1533 0.555032 12.1211 0.796968 12.9074 1.58326C13.6937 2.36955 13.9356 3.33729 13.9961 4.426ZM12.5445 11.2002C12.9074 10.3232 12.8167 8.20624 12.8167 7.20826C12.8167 6.24052 12.9074 4.12358 12.5445 3.21632C12.3025 2.64173 11.8489 2.15785 11.2743 1.94616C10.3671 1.58326 8.25012 1.67398 7.28238 1.67398C6.2844 1.67398 4.16746 1.58326 3.29045 1.94616C2.68561 2.1881 2.23198 2.64173 1.99004 3.21632C1.62714 4.12358 1.71787 6.24052 1.71787 7.20826C1.71787 8.20624 1.62714 10.3232 1.99004 11.2002C2.23198 11.805 2.68561 12.2587 3.29045 12.5006C4.16746 12.8635 6.2844 12.7728 7.28238 12.7728C8.25012 12.7728 10.3671 12.8635 11.2743 12.5006C11.8489 12.2587 12.3328 11.805 12.5445 11.2002Z" fill="black"/>
</svg>
