<svg width="16" height="16" viewBox="0 0 16 16" fill="none" xmlns="http://www.w3.org/2000/svg">
<path d="M15.9296 8.20826C15.9296 12.3514 12.5728 15.7083 8.42965 15.7083C7.64336 15.7083 6.88731 15.6175 6.19175 15.3756C6.49416 14.8917 6.94779 14.0752 7.12925 13.4099C7.21997 13.0772 7.58287 11.6256 7.58287 11.6256C7.82481 12.1095 8.55062 12.5026 9.30666 12.5026C11.5748 12.5026 13.2079 10.4159 13.2079 7.84535C13.2079 5.36552 11.1817 3.49052 8.58086 3.49052C5.34497 3.49052 3.62118 5.66794 3.62118 8.02681C3.62118 9.14576 4.19578 10.5066 5.13328 10.9603C5.28449 11.0208 5.37521 10.9905 5.40546 10.8393C5.40546 10.7486 5.55666 10.2345 5.61715 9.99253C5.61715 9.93205 5.61715 9.84132 5.55666 9.78084C5.25425 9.41794 5.01231 8.72237 5.01231 8.05705C5.01231 6.42398 6.25223 4.82116 8.39941 4.82116C10.2139 4.82116 11.5143 6.06108 11.5143 7.8756C11.5143 9.90181 10.4861 11.2929 9.15546 11.2929C8.42965 11.2929 7.88529 10.6881 8.0365 9.96229C8.2482 9.05503 8.67158 8.08729 8.67158 7.45221C8.67158 6.87761 8.36916 6.39374 7.73408 6.39374C6.97804 6.39374 6.3732 7.18003 6.3732 8.20826C6.3732 8.87358 6.58489 9.32721 6.58489 9.32721C6.58489 9.32721 5.85908 12.4724 5.70787 13.047C5.55666 13.7123 5.61715 14.6195 5.67763 15.1941C2.89537 14.1054 0.929649 11.4139 0.929649 8.20826C0.929649 4.06511 4.2865 0.708258 8.42965 0.708258C12.5728 0.708258 15.9296 4.06511 15.9296 8.20826Z" fill="black"/>
</svg>
