<svg width="16" height="14" viewBox="0 0 16 14" fill="none" xmlns="http://www.w3.org/2000/svg">
<path d="M14.2843 4.0631C14.2843 4.21431 14.2843 4.33527 14.2843 4.48648C14.2843 8.69011 11.1089 13.4986 5.27217 13.4986C3.45766 13.4986 1.79435 12.9845 0.40322 12.0772C0.645156 12.1075 0.887091 12.1377 1.15927 12.1377C2.64112 12.1377 4.00201 11.6236 5.09072 10.7768C3.69959 10.7466 2.52016 9.83931 2.12701 8.56915C2.3387 8.59939 2.52016 8.62963 2.73185 8.62963C3.00403 8.62963 3.30645 8.56915 3.54838 8.50866C2.09677 8.20624 1.00806 6.93608 1.00806 5.39374V5.3635C1.43145 5.60544 1.94556 5.7264 2.45967 5.75665C1.58266 5.18205 1.0383 4.21431 1.0383 3.1256C1.0383 2.52076 1.18951 1.9764 1.46169 1.52277C3.03427 3.42802 5.39314 4.69818 8.02419 4.84939C7.9637 4.60745 7.93346 4.36552 7.93346 4.12358C7.93346 2.36955 9.35483 0.948178 11.1089 0.948178C12.0161 0.948178 12.8327 1.31108 13.4375 1.94616C14.1331 1.79495 14.8286 1.52277 15.4335 1.15987C15.1915 1.91592 14.7077 2.52076 14.0423 2.9139C14.6774 2.85342 15.3125 2.67197 15.8568 2.43003C15.4335 3.06511 14.8891 3.60947 14.2843 4.0631Z" fill="black"/>
</svg>
