<svg width="17" height="13" viewBox="0 0 17 13" fill="none" xmlns="http://www.w3.org/2000/svg">
<path d="M16.2716 2.24656C16.6345 3.51673 16.6345 6.2385 16.6345 6.2385C16.6345 6.2385 16.6345 8.93003 16.2716 10.2304C16.0901 10.9562 15.5155 11.5006 14.8199 11.682C13.5195 12.0147 8.37841 12.0147 8.37841 12.0147C8.37841 12.0147 3.20704 12.0147 1.90664 11.682C1.21107 11.5006 0.636476 10.9562 0.455025 10.2304C0.0921216 8.93003 0.0921216 6.2385 0.0921216 6.2385C0.0921216 6.2385 0.0921216 3.51673 0.455025 2.24656C0.636476 1.52076 1.21107 0.946161 1.90664 0.76471C3.20704 0.401807 8.37841 0.401807 8.37841 0.401807C8.37841 0.401807 13.5195 0.401807 14.8199 0.76471C15.5155 0.946161 16.0901 1.52076 16.2716 2.24656ZM6.68486 8.6881L10.9792 6.2385L6.68486 3.7889V8.6881Z" fill="black"/>
</svg>
